<svg xmlns="http://www.w3.org/2000/svg" version="1.1" width="500" height="500">
<polyline points=" 39,110 38,110 34,116 31,123 28,145 28,168 28,188 30,204 31,215 34,220 34,222 35,222 36,222 40,222 46,222 54,224" stroke-width="1" stroke="Black" fill="white"/>
<polyline points=" 155,111 155,113 155,122 155,128 155,132 155,137 155,141 155,142 155,143 155,146 155,150 155,153 155,158 156,159 157,161 158,164 162,171 166,179 168,184" stroke-width="1" stroke="Black" fill="white"/>
<polyline points=" 244,102 244,104 244,107 244,121 245,141 249,159 250,172 250,182 250,187 250,189 250,192" stroke-width="1" stroke="Black" fill="white"/>
<polyline points=" 336,104 336,105 335,113 329,128 326,164 326,193 326,208 326,224 326,232 326,233 326,235 326,235 326,237 327,239 329,239 330,239 336,235" stroke-width="1" stroke="Black" fill="white"/>
<polyline points=" 500,106 500,105 500,102 500,107 500,122 500,151 500,173 500,188 500,202 500,207 500,210 500,219 500,239 500,253 500,268 500,276 500,281 500,283 500,281 500,279 500,273 500,264 500,259" stroke-width="1" stroke="Black" fill="white"/>
<polyline points=" 217,351 218,351 227,354 242,360 255,365 273,371 289,377 295,382 301,385 304,385 305,386 306,386 308,386 311,386 314,386 317,387 324,387 330,388 334,390 337,391 341,391 347,391 354,391 365,386 371,385 376,382 381,380 385,377 391,375 401,372 412,370 419,367 426,367 429,367 436,367 438,367 439,368 442,370 443,371 446,373" stroke-width="1" stroke="Black" fill="white"/>
<polyline points=" 288,102 288,102" stroke-width="1" stroke="Black" fill="white"/>
<rect x="88" y="240" rx="50" ry="50" width="316" height="257" style="fill:Red;stroke:0CE807F;stroke-width:4" />
</svg>
